<svg width="28" height="23" viewBox="0 0 28 23" fill="none" xmlns="http://www.w3.org/2000/svg">
<path d="M0.5 5.83333C0.5 4.41885 1.0619 3.06229 2.0621 2.0621C3.06229 1.0619 4.41885 0.5 5.83333 0.5H21.8333C23.2478 0.5 24.6044 1.0619 25.6046 2.0621C26.6048 3.06229 27.1667 4.41885 27.1667 5.83333V16.5C27.1667 17.9145 26.6048 19.271 25.6046 20.2712C24.6044 21.2714 23.2478 21.8333 21.8333 21.8333H5.83333C4.41885 21.8333 3.06229 21.2714 2.0621 20.2712C1.0619 19.271 0.5 17.9145 0.5 16.5V5.83333Z" stroke="white" stroke-linecap="round" stroke-linejoin="round"/>
<path d="M11.1667 7.16663L17.8334 11.1666L11.1667 15.1666V7.16663Z" stroke="white" stroke-linecap="round" stroke-linejoin="round"/>
</svg>
