<svg width="23" height="23" viewBox="0 0 23 23" fill="none" xmlns="http://www.w3.org/2000/svg">
<path d="M0.5 5.83333C0.5 4.41885 1.0619 3.06229 2.0621 2.0621C3.06229 1.0619 4.41885 0.5 5.83333 0.5H16.5C17.9145 0.5 19.271 1.0619 20.2712 2.0621C21.2714 3.06229 21.8333 4.41885 21.8333 5.83333V16.5C21.8333 17.9145 21.2714 19.271 20.2712 20.2712C19.271 21.2714 17.9145 21.8333 16.5 21.8333H5.83333C4.41885 21.8333 3.06229 21.2714 2.0621 20.2712C1.0619 19.271 0.5 17.9145 0.5 16.5V5.83333Z" stroke="white" stroke-linecap="round" stroke-linejoin="round"/>
<path d="M17.1665 5.16675V5.18008M7.1665 11.1667C7.1665 12.2276 7.58793 13.245 8.33808 13.9952C9.08822 14.7453 10.1056 15.1667 11.1665 15.1667C12.2274 15.1667 13.2448 14.7453 13.9949 13.9952C14.7451 13.245 15.1665 12.2276 15.1665 11.1667C15.1665 10.1059 14.7451 9.08847 13.9949 8.33832C13.2448 7.58817 12.2274 7.16675 11.1665 7.16675C10.1056 7.16675 9.08822 7.58817 8.33808 8.33832C7.58793 9.08847 7.1665 10.1059 7.1665 11.1667Z" stroke="white" stroke-linecap="round" stroke-linejoin="round"/>
</svg>
