<svg width="23" height="23" viewBox="0 0 23 23" fill="none" xmlns="http://www.w3.org/2000/svg">
<path d="M0.5 5.83333C0.5 4.41885 1.0619 3.06229 2.0621 2.0621C3.06229 1.0619 4.41885 0.5 5.83333 0.5H16.5C17.9145 0.5 19.271 1.0619 20.2712 2.0621C21.2714 3.06229 21.8333 4.41885 21.8333 5.83333V16.5C21.8333 17.9145 21.2714 19.271 20.2712 20.2712C19.271 21.2714 17.9145 21.8333 16.5 21.8333H5.83333C4.41885 21.8333 3.06229 21.2714 2.0621 20.2712C1.0619 19.271 0.5 17.9145 0.5 16.5V5.83333Z" stroke="white" stroke-linecap="round" stroke-linejoin="round"/>
<path d="M17.1667 5.16663V5.17996M7.16675 11.1666C7.16675 12.2275 7.58817 13.2449 8.33832 13.9951C9.08847 14.7452 10.1059 15.1666 11.1667 15.1666C12.2276 15.1666 13.245 14.7452 13.9952 13.9951C14.7453 13.2449 15.1667 12.2275 15.1667 11.1666C15.1667 10.1058 14.7453 9.08834 13.9952 8.3382C13.245 7.58805 12.2276 7.16663 11.1667 7.16663C10.1059 7.16663 9.08847 7.58805 8.33832 8.3382C7.58817 9.08834 7.16675 10.1058 7.16675 11.1666Z" stroke="white" stroke-linecap="round" stroke-linejoin="round"/>
</svg>
