<svg width="40" height="40" viewBox="0 0 40 40" fill="none" xmlns="http://www.w3.org/2000/svg">
<path d="M24.2741 1.47614C22.7881 2.96214 22.0181 5.55214 22.5781 7.58014C22.8761 8.65214 22.9241 9.95014 22.1381 10.7381L10.7381 22.1381C9.95014 22.9241 8.65214 22.8761 7.57814 22.5781C5.55214 22.0181 2.96214 22.7881 1.47614 24.2741C1.00824 24.7419 0.637052 25.2973 0.383776 25.9085C0.1305 26.5197 9.29083e-05 27.1748 4.96934e-08 27.8364C-0.000187487 29.1726 0.530435 30.4542 1.47514 31.3991C2.41984 32.3441 3.70123 32.8751 5.03743 32.8753C6.37363 32.8755 7.65517 32.3448 8.60014 31.4001C7.65544 32.3451 7.12481 33.6266 7.125 34.9628C7.12519 36.299 7.65617 37.5804 8.60114 38.5251C9.5461 39.4698 10.8276 40.0005 12.1638 40.0003C13.5 40.0001 14.7814 39.4691 15.7261 38.5241C17.2121 37.0381 17.9821 34.4481 17.4221 32.4201C17.1241 31.3481 17.0761 30.0501 17.8621 29.2621L29.2621 17.8621C30.0501 17.0761 31.3481 17.1241 32.4221 17.4221C34.4481 17.9821 37.0381 17.2121 38.5241 15.7261C39.4691 14.7814 40.0001 13.5 40.0003 12.1638C40.0005 10.8276 39.4698 9.5461 38.5251 8.60114C38.0574 8.13324 37.502 7.76205 36.8908 7.50878C36.2796 7.2555 35.6245 7.12509 34.9628 7.125C33.6266 7.12481 32.3451 7.65543 31.4001 8.60014C32.3448 7.65517 32.8755 6.37363 32.8753 5.03743C32.8751 3.70123 32.3441 2.41984 31.3991 1.47514C30.4542 0.530434 29.1726 -0.000187477 27.8364 4.96882e-08C26.5002 0.000187576 25.2188 0.531169 24.2741 1.47614Z" fill="#154C84"/>
</svg>
