<svg width="36" height="33" viewBox="0 0 36 33" fill="none" xmlns="http://www.w3.org/2000/svg">
<path d="M26.634 0C29.25 0 31.4653 1.00267 33.28 3.008C35.0947 5.01333 36.0013 7.43333 36 10.268C36 10.9213 35.9473 11.5713 35.842 12.218C35.7367 12.8647 35.5627 13.51 35.32 14.154H25.05L21.65 9.054C21.4833 8.78733 21.25 8.57067 20.95 8.404C20.65 8.23733 20.3333 8.154 20 8.154C19.5667 8.154 19.1753 8.28733 18.826 8.554C18.4767 8.82067 18.2347 9.154 18.1 9.554L15.4 17.654L13.65 15.054C13.4833 14.7873 13.25 14.5707 12.95 14.404C12.65 14.2373 12.3333 14.154 12 14.154H0.68C0.437333 13.5367 0.263333 12.904 0.158 12.256C0.0526667 11.608 0 10.9627 0 10.32C0 7.44933 0.898667 5.012 2.696 3.008C4.49333 1.004 6.7 0.00133333 9.316 0C10.684 0 12 0.278667 13.264 0.836C14.5267 1.392 15.6567 2.198 16.654 3.254L18 4.678L19.27 3.332C20.2847 2.24933 21.43 1.42333 22.706 0.854C23.982 0.284666 25.2913 0 26.634 0ZM18 32.192C17.6827 32.192 17.364 32.1287 17.044 32.002C16.724 31.8753 16.4507 31.6847 16.224 31.43L3.592 18.75C3.49467 18.6527 3.40133 18.5553 3.312 18.458C3.22267 18.3607 3.132 18.2593 3.04 18.154H10.9L14.3 23.254C14.4667 23.5207 14.7 23.7373 15 23.904C15.3 24.0707 15.6167 24.154 15.95 24.154C16.3833 24.154 16.7833 24.0207 17.15 23.754C17.5167 23.4873 17.7667 23.154 17.9 22.754L20.6 14.654L22.3 17.254C22.5 17.5207 22.75 17.7373 23.05 17.904C23.35 18.0707 23.6667 18.154 24 18.154H32.946L32.678 18.446L32.408 18.738L19.728 31.432C19.4733 31.6853 19.2013 31.8753 18.912 32.002C18.6227 32.1287 18.3187 32.192 18 32.192Z" fill="#154C84"/>
</svg>
