<svg width="28" height="33" viewBox="0 0 28 33" fill="none" xmlns="http://www.w3.org/2000/svg">
<g filter="url(#filter0_d_130_20)">
<path fill-rule="evenodd" clip-rule="evenodd" d="M13.9003 2.5C12.5196 2.5 11.4003 3.61929 11.4003 5V6.25H16.4003V5C16.4003 3.61929 15.281 2.5 13.9003 2.5ZM18.9003 6.25V5C18.9003 2.23858 16.6617 0 13.9003 0C11.1389 0 8.9003 2.23858 8.9003 5V6.25H6.4003C5.74713 6.25 5.20408 6.75288 5.15398 7.40413L4.00751 22.3083C3.89582 23.7602 5.04387 25 6.50015 25H21.3005C22.7567 25 23.9048 23.7602 23.7931 22.3083L22.6466 7.40413C22.5965 6.75288 22.0535 6.25 21.4003 6.25H18.9003ZM16.4003 8.75V10C16.4003 10.6904 16.9599 11.25 17.6503 11.25C18.3407 11.25 18.9003 10.6904 18.9003 10V8.75H20.2428L21.3005 22.5H6.50015L7.55784 8.75H8.9003V10C8.9003 10.6904 9.45995 11.25 10.1503 11.25C10.8407 11.25 11.4003 10.6904 11.4003 10V8.75H16.4003Z" fill="#154C84"/>
<path fill-rule="evenodd" clip-rule="evenodd" d="M13.9003 2.5C12.5196 2.5 11.4003 3.61929 11.4003 5V6.25H16.4003V5C16.4003 3.61929 15.281 2.5 13.9003 2.5ZM18.9003 6.25V5C18.9003 2.23858 16.6617 0 13.9003 0C11.1389 0 8.9003 2.23858 8.9003 5V6.25H6.4003C5.74713 6.25 5.20408 6.75288 5.15398 7.40413L4.00751 22.3083C3.89582 23.7602 5.04387 25 6.50015 25H21.3005C22.7567 25 23.9048 23.7602 23.7931 22.3083L22.6466 7.40413C22.5965 6.75288 22.0535 6.25 21.4003 6.25H18.9003ZM16.4003 8.75V10C16.4003 10.6904 16.9599 11.25 17.6503 11.25C18.3407 11.25 18.9003 10.6904 18.9003 10V8.75H20.2428L21.3005 22.5H6.50015L7.55784 8.75H8.9003V10C8.9003 10.6904 9.45995 11.25 10.1503 11.25C10.8407 11.25 11.4003 10.6904 11.4003 10V8.75H16.4003Z" stroke="black"/>
</g>
<defs>
<filter id="filter0_d_130_20" x="0" y="0" width="27.8006" height="33" filterUnits="userSpaceOnUse" color-interpolation-filters="sRGB">
<feFlood flood-opacity="0" result="BackgroundImageFix"/>
<feColorMatrix in="SourceAlpha" type="matrix" values="0 0 0 0 0 0 0 0 0 0 0 0 0 0 0 0 0 0 127 0" result="hardAlpha"/>
<feOffset dy="4"/>
<feGaussianBlur stdDeviation="2"/>
<feComposite in2="hardAlpha" operator="out"/>
<feColorMatrix type="matrix" values="0 0 0 0 0 0 0 0 0 0 0 0 0 0 0 0 0 0 0.25 0"/>
<feBlend mode="normal" in2="BackgroundImageFix" result="effect1_dropShadow_130_20"/>
<feBlend mode="normal" in="SourceGraphic" in2="effect1_dropShadow_130_20" result="shape"/>
</filter>
</defs>
</svg>
